<svg width="18" height="18" viewBox="0 0 18 18" fill="none" xmlns="http://www.w3.org/2000/svg">
<mask id="mask0_7396_6954" style="mask-type:luminance" maskUnits="userSpaceOnUse" x="0" y="0" width="18" height="18">
<path fill-rule="evenodd" clip-rule="evenodd" d="M9 18C13.9706 18 18 13.9706 18 9C18 4.02944 13.9706 0 9 0C4.02944 0 0 4.02944 0 9C0 13.9706 4.02944 18 9 18Z" fill="white"/>
</mask>
<g mask="url(#mask0_7396_6954)">
<path fill-rule="evenodd" clip-rule="evenodd" d="M5.50447 7.56368L9.00006 4.06823L12.4975 7.56553L14.5315 5.53155L9.00006 -7.62939e-06L3.47049 5.5297L5.50447 7.56368ZM2.03414 6.96567L4.06808 8.99961L2.03394 11.0338L0 8.99981L2.03414 6.96567ZM9.00005 13.9316L5.50445 10.4362L3.46749 12.4674L3.47033 12.4703L9.00005 18L14.5315 12.4684L14.5325 12.4673L12.4973 10.4345L9.00005 13.9316ZM18.0002 9.00086L15.9662 11.0349L13.9323 9.00096L15.9663 6.96692L18.0002 9.00086ZM11.0639 8.99901H11.0631L11.0649 9L11.0639 9.00114L8.99996 11.065L6.93784 9.00284L6.935 9L6.93784 8.99702L7.29937 8.63549L7.47452 8.46034H7.47466L8.99996 6.93489L11.0639 8.99901Z" fill="#F5BC00"/>
</g>
</svg>
