<svg width="24" height="24" viewBox="0 0 24 24" fill="none" xmlns="http://www.w3.org/2000/svg">
<path d="M11.655 12.3949L7.655 8.3949" stroke="#FFC400" stroke-width="1.5" stroke-linecap="round" stroke-linejoin="round"/>
<path d="M11.394 4.65491L15.394 8.65491" stroke="#FFC400" stroke-width="1.5" stroke-linecap="round" stroke-linejoin="round"/>
<path d="M3 21.0009H13.586" stroke="#FFC400" stroke-width="1.5" stroke-linecap="round" stroke-linejoin="round"/>
<path d="M3.89999 21.0009L4.44499 19.3689C4.57742 18.9713 4.8314 18.6253 5.17106 18.3798C5.51073 18.1344 5.91892 18.0018 6.33799 18.0009H10.248C10.6683 18.0003 11.078 18.1322 11.4191 18.3778C11.7601 18.6234 12.0152 18.9701 12.148 19.3689L12.689 21.0009" stroke="#FFC400" stroke-width="1.5" stroke-linecap="round" stroke-linejoin="round"/>
<path d="M8.89199 7.30085L6.69199 9.05585C6.49086 9.21671 6.32584 9.41811 6.20767 9.64695C6.0895 9.87579 6.02082 10.1269 6.00611 10.3841C5.9914 10.6412 6.03097 10.8985 6.12227 11.1394C6.21356 11.3802 6.35453 11.5991 6.53599 11.7819L8.21199 13.4659C8.39196 13.6468 8.60807 13.7877 8.84621 13.8794C9.08434 13.971 9.33914 14.0115 9.59396 13.998C9.84878 13.9845 10.0979 13.9174 10.325 13.801C10.5521 13.6847 10.7521 13.5218 10.912 13.3229L12.688 11.1169C13.1082 10.5944 13.5844 10.1196 14.108 9.70085L16.308 7.94585C16.5091 7.78499 16.6741 7.58359 16.7923 7.35475C16.9105 7.12592 16.9792 6.87477 16.9939 6.61764C17.0086 6.36051 16.969 6.10317 16.8777 5.86234C16.7864 5.62152 16.6455 5.40261 16.464 5.21985L14.791 3.53685C14.611 3.35594 14.3949 3.21504 14.1568 3.12335C13.9186 3.03166 13.6638 2.99124 13.409 3.00474C13.1542 3.01823 12.9051 3.08534 12.678 3.20167C12.4509 3.318 12.2508 3.48095 12.091 3.67985L10.313 5.88585C9.89269 6.40824 9.41615 6.88276 8.89199 7.30085V7.30085Z" stroke="#FFC400" stroke-width="1.5" stroke-linecap="round" stroke-linejoin="round"/>
<path d="M14.376 9.48779L20.3 14.5008C20.5069 14.6766 20.6755 14.8929 20.7955 15.1364C20.9155 15.3799 20.9843 15.6454 20.9976 15.9166C21.011 16.1877 20.9686 16.4587 20.8731 16.7128C20.7776 16.9669 20.631 17.1988 20.4424 17.394C20.2538 17.5893 20.0272 17.7438 19.7765 17.848C19.5259 17.9522 19.2565 18.004 18.9851 18C18.7136 17.9961 18.4459 17.9365 18.1984 17.825C17.9509 17.7135 17.7288 17.5525 17.546 17.3518L12.312 11.5878" stroke="#FFC400" stroke-width="1.5" stroke-linecap="round" stroke-linejoin="round"/>
</svg>
