<svg width="245" height="58" viewBox="0 0 245 58" fill="none" xmlns="http://www.w3.org/2000/svg">
<g clip-path="url(#clip0_7417_5077)">
<path d="M91.9002 14.0244V44.774H85.7337L71.8958 24.5528V44.7368H65.8209V14.0244H71.9874L85.8255 34.2085V14.0244H91.9002Z" fill="white"/>
<path d="M104.142 19.8178V26.7253H112.988V32.5186H104.142V44.774H98.067V14.0244H114.75V19.8178H104.142Z" fill="white"/>
<path d="M139.159 19.8178H131.322V44.774H125.247V19.8178H117.392V14.0244H139.159V19.8178Z" fill="white"/>
<path d="M139.471 29.752H152.318V35.3225H139.471V29.752Z" fill="white"/>
<path d="M179.15 36.4365C179.166 37.5614 178.955 38.6776 178.528 39.7163C178.101 40.755 177.468 41.6942 176.668 42.4756C175.868 43.257 174.918 43.8641 173.877 44.2594C172.836 44.6547 171.726 44.8298 170.616 44.7738H157.971V14.0242H169.551C170.595 13.979 171.637 14.1484 172.614 14.5221C173.591 14.8959 174.483 15.4662 175.236 16.1987C175.99 16.9311 176.588 17.8105 176.996 18.7836C177.403 19.7567 177.612 20.8032 177.608 21.8601C177.639 23.1628 177.336 24.4515 176.728 25.6003C176.12 26.749 175.228 27.7188 174.14 28.4149C175.682 29.078 176.988 30.2009 177.883 31.6341C178.778 33.0673 179.22 34.7426 179.15 36.4365ZM163.862 19.5576V26.4095H167.973C168.41 26.4095 168.843 26.3218 169.246 26.1515C169.649 25.9812 170.015 25.7318 170.322 25.4174C170.629 25.1031 170.872 24.7303 171.036 24.3205C171.199 23.9107 171.281 23.472 171.276 23.03C171.289 22.5859 171.212 22.1439 171.051 21.7306C170.89 21.3173 170.648 20.9413 170.339 20.6255C170.03 20.3096 169.661 20.0604 169.255 19.8928C168.848 19.7252 168.412 19.6428 167.973 19.6505L163.862 19.5576ZM172.891 35.3781C172.909 34.8701 172.824 34.3638 172.641 33.8905C172.457 33.4172 172.179 32.987 171.825 32.6267C171.471 32.2664 171.047 31.9835 170.58 31.7956C170.113 31.6077 169.613 31.5188 169.111 31.5344H163.862V39.2589H169.111C169.616 39.2748 170.12 39.1848 170.589 38.9947C171.059 38.8046 171.484 38.5183 171.839 38.1539C172.194 37.7895 172.471 37.3548 172.652 36.8772C172.833 36.3995 172.914 35.8892 172.891 35.3781Z" fill="white"/>
<path d="M192.327 39.4077V44.6997H182.802V12.6875H188.528V39.4077H192.327Z" fill="white"/>
<path d="M194.254 33.4103C194.192 30.9813 194.847 28.5888 196.136 26.5384C197.425 24.4881 199.288 22.873 201.489 21.8997C203.689 20.9263 206.127 20.6388 208.489 21.074C210.852 21.5092 213.033 22.6473 214.753 24.3428C216.473 26.0383 217.655 28.2142 218.147 30.5925C218.639 32.9708 218.418 35.4434 217.514 37.6944C216.61 39.9454 215.063 41.8726 213.071 43.2296C211.079 44.5867 208.732 45.3119 206.331 45.3127C204.756 45.3679 203.187 45.1002 201.718 44.5256C200.249 43.951 198.91 43.0814 197.781 41.9694C196.653 40.8573 195.759 39.5257 195.153 38.0547C194.547 36.5837 194.241 35.0039 194.254 33.4103ZM212.497 33.4103C212.486 32.1788 212.115 30.9779 211.431 29.9593C210.747 28.9406 209.78 28.1497 208.652 27.686C207.525 27.2223 206.287 27.1066 205.094 27.3536C203.902 27.6006 202.808 28.1992 201.951 29.0739C201.094 29.9486 200.512 31.0604 200.279 32.2691C200.045 33.4778 200.17 34.7294 200.639 35.8662C201.107 37.003 201.897 37.9742 202.91 38.6573C203.923 39.3404 205.113 39.7049 206.331 39.705C207.15 39.723 207.964 39.5722 208.724 39.2615C209.484 38.9508 210.173 38.4868 210.75 37.8978C211.327 37.3089 211.78 36.6074 212.08 35.8359C212.38 35.0643 212.522 34.2391 212.497 33.4103Z" fill="white"/>
<path d="M221.123 33.41C221.235 30.4604 222.395 27.6507 224.391 25.4974C226.386 23.3441 229.083 21.9918 231.985 21.6891C234.887 21.3865 237.8 22.1538 240.187 23.8499C242.575 25.5461 244.277 28.0572 244.982 30.9217H238.907C238.339 29.5925 237.336 28.502 236.066 27.8341C234.796 27.1661 233.337 26.9616 231.935 27.2549C230.534 27.5483 229.275 28.3217 228.371 29.4445C227.468 30.5674 226.974 31.9712 226.974 33.4193C226.974 34.8673 227.468 36.2711 228.371 37.394C229.275 38.5169 230.534 39.2901 231.935 39.5835C233.337 39.8768 234.796 39.6723 236.066 39.0044C237.336 38.3364 238.339 37.2459 238.907 35.9167H244.982C244.277 38.7822 242.573 41.2937 240.183 42.9894C237.794 44.6851 234.879 45.4509 231.976 45.1459C229.073 44.8409 226.377 43.4856 224.383 41.3294C222.388 39.1731 221.231 36.3609 221.123 33.41Z" fill="white"/>
</g>
<g clip-path="url(#clip1_7417_5077)">
<path d="M25.3339 7.24784V14.5018L31.6706 10.878V3.62402L25.3339 7.24784Z" fill="#2129DB"/>
<path d="M25.3339 7.24763L31.6706 3.62382L25.3339 0L19.0036 3.62382L25.3339 7.24763Z" fill="#00FFBB"/>
<path d="M19.0036 10.878V3.62402L25.3339 7.24784V14.5018L19.0036 10.878Z" fill="#0A1393"/>
<path d="M19.0036 10.8777V18.1253L25.3339 14.5015V7.24756L19.0036 10.8777Z" fill="#2129DB"/>
<path d="M19.0036 10.878L25.3339 7.24784L19.0036 3.62402L12.667 7.24784L19.0036 10.878Z" fill="#00FFBB"/>
<path d="M12.667 14.5015V7.24756L19.0036 10.8777V18.1253L12.667 14.5015Z" fill="#0A1393"/>
<path d="M31.6706 10.8777V18.1253L38.0009 14.5015V7.24756L31.6706 10.8777Z" fill="#2129DB"/>
<path d="M31.6706 10.878L38.0009 7.24784L31.6706 3.62402L25.3339 7.24784L31.6706 10.878Z" fill="#2F37FF"/>
<path d="M25.3339 14.5015V7.24756L31.6706 10.8777V18.1253L25.3339 14.5015Z" fill="#0A1393"/>
<path d="M6.33666 39.8748V47.1287L12.667 43.5049V36.251L6.33666 39.8748Z" fill="#006B7A"/>
<path d="M6.33666 39.8746L12.667 36.2508L6.33666 32.627L0 36.2508L6.33666 39.8746Z" fill="#2F37FF"/>
<path d="M0 43.5049V36.251L6.33666 39.8748V47.1287L0 43.5049Z" fill="#00A57E"/>
<path d="M6.33666 32.6268V39.8744L12.667 36.2506V29.0029L6.33666 32.6268Z" fill="#006B7A"/>
<path d="M6.33666 32.627L12.667 29.0032L6.33666 25.3794L0 29.0032L6.33666 32.627Z" fill="#2F37FF"/>
<path d="M0 36.2506V29.0029L6.33666 32.6268V39.8744L0 36.2506Z" fill="#00A57E"/>
<path d="M6.33666 25.3792V32.6268L12.667 29.003V21.749L6.33666 25.3792Z" fill="#2129DB"/>
<path d="M6.33666 25.3794L12.667 21.7493L6.33666 18.1255L0 21.7493L6.33666 25.3794Z" fill="#2F37FF"/>
<path d="M0 29.003V21.749L6.33666 25.3792V32.6268L0 29.003Z" fill="#00A57E"/>
<path d="M31.6706 47.1287V54.3763L38.0009 50.7525V43.5049L31.6706 47.1287Z" fill="#2129DB"/>
<path d="M31.6706 47.1285L38.0009 43.5046L31.6706 39.8745L25.3339 43.5046L31.6706 47.1285Z" fill="#2F37FF"/>
<path d="M25.3339 50.7525V43.5049L31.6706 47.1287V54.3763L25.3339 50.7525Z" fill="#0A1393"/>
<path d="M25.3339 43.5046V50.7523L31.6706 47.1285V39.8745L25.3339 43.5046Z" fill="#2129DB"/>
<path d="M25.3339 43.5049L31.6706 39.8748L25.3339 36.251L19.0036 39.8748L25.3339 43.5049Z" fill="#2F37FF"/>
<path d="M19.0036 47.1285V39.8745L25.3339 43.5046V50.7523L19.0036 47.1285Z" fill="#0A1393"/>
<path d="M31.6706 25.3792V32.6268L38.0009 29.003V21.749L31.6706 25.3792Z" fill="#2129DB"/>
<path d="M31.6706 25.3794L38.0009 21.7493L31.6706 18.1255L25.3339 21.7493L31.6706 25.3794Z" fill="#2F37FF"/>
<path d="M25.3339 29.003V21.749L31.6706 25.3792V32.6268L25.3339 29.003Z" fill="#0A1393"/>
<path d="M12.667 29.0032V36.2508L19.0036 32.627V25.3794L12.667 29.0032Z" fill="#2129DB"/>
<path d="M12.667 29.003L19.0036 25.3792L12.667 21.749L6.33666 25.3792L12.667 29.003Z" fill="#2F37FF"/>
<path d="M6.33666 32.627V25.3794L12.667 29.0032V36.2508L6.33666 32.627Z" fill="#00A57E"/>
<path d="M19.0036 47.1287V54.3763L25.3339 50.7525V43.5049L19.0036 47.1287Z" fill="#2129DB"/>
<path d="M19.0036 47.1285L25.3339 43.5046L19.0036 39.8745L12.667 43.5046L19.0036 47.1285Z" fill="#2F37FF"/>
<path d="M12.667 50.7525V43.5049L19.0036 47.1287V54.3763L12.667 50.7525Z" fill="#00A57E"/>
<path d="M19.0036 39.8748V47.1287L25.3339 43.5049V36.251L19.0036 39.8748Z" fill="#2129DB"/>
<path d="M19.0036 39.8746L25.3339 36.2508L19.0036 32.627L12.667 36.2508L19.0036 39.8746Z" fill="#2F37FF"/>
<path d="M12.667 43.5049V36.251L19.0036 39.8748V47.1287L12.667 43.5049Z" fill="#00A57E"/>
<path d="M19.0036 32.6268V39.8744L25.3339 36.2506V29.0029L19.0036 32.6268Z" fill="#2129DB"/>
<path d="M19.0036 32.627L25.3339 29.0032L19.0036 25.3794L12.667 29.0032L19.0036 32.627Z" fill="#2F37FF"/>
<path d="M12.667 36.2506V29.0029L19.0036 32.6268V39.8744L12.667 36.2506Z" fill="#00A57E"/>
<path d="M12.667 14.5017V21.7494L19.0036 18.1256V10.8779L12.667 14.5017Z" fill="#006B7A"/>
<path d="M12.667 14.5015L19.0036 10.8777L12.667 7.24756L6.33666 10.8777L12.667 14.5015Z" fill="#00FFBB"/>
<path d="M6.33666 18.1256V10.8779L12.667 14.5017V21.7494L6.33666 18.1256Z" fill="#0A1393"/>
<path d="M25.3339 14.5017V21.7494L31.6706 18.1256V10.8779L25.3339 14.5017Z" fill="#2129DB"/>
<path d="M25.3339 14.5015L31.6706 10.8777L25.3339 7.24756L19.0036 10.8777L25.3339 14.5015Z" fill="#00FFBB"/>
<path d="M19.0036 18.1256V10.8779L25.3339 14.5017V21.7494L19.0036 18.1256Z" fill="#00A57E"/>
<path d="M38.0009 14.5017V21.7494L44.3375 18.1256V10.8779L38.0009 14.5017Z" fill="#2129DB"/>
<path d="M38.0009 14.5015L44.3375 10.8777L38.0009 7.24756L31.6706 10.8777L38.0009 14.5015Z" fill="#2F37FF"/>
<path d="M31.6706 18.1256V10.8779L38.0009 14.5017V21.7494L31.6706 18.1256Z" fill="#0A1393"/>
<path d="M31.6706 18.1253V25.3792L38.0009 21.7491V14.5015L31.6706 18.1253Z" fill="#2129DB"/>
<path d="M31.6706 18.1256L38.0009 14.5017L31.6706 10.8779L25.3339 14.5017L31.6706 18.1256Z" fill="#2F37FF"/>
<path d="M25.3339 21.7491V14.5015L31.6706 18.1253V25.3792L25.3339 21.7491Z" fill="#0A1393"/>
<path d="M6.33666 18.1253V25.3792L12.667 21.7491V14.5015L6.33666 18.1253Z" fill="#2129DB"/>
<path d="M6.33666 18.1256L12.667 14.5017L6.33666 10.8779L0 14.5017L6.33666 18.1256Z" fill="#2F37FF"/>
<path d="M0 21.7491V14.5015L6.33666 18.1253V25.3792L0 21.7491Z" fill="#0A1393"/>
<path d="M12.667 21.7493V29.0032L19.0036 25.3794V18.1255L12.667 21.7493Z" fill="#2129DB"/>
<path d="M12.667 21.7491L19.0036 18.1253L12.667 14.5015L6.33666 18.1253L12.667 21.7491Z" fill="#2F37FF"/>
<path d="M6.33666 25.3794V18.1255L12.667 21.7493V29.0032L6.33666 25.3794Z" fill="#0A1393"/>
<path d="M25.3339 21.7493V29.0032L31.6706 25.3794V18.1255L25.3339 21.7493Z" fill="#2129DB"/>
<path d="M25.3339 21.7491L31.6706 18.1253L25.3339 14.5015L19.0036 18.1253L25.3339 21.7491Z" fill="#2F37FF"/>
<path d="M19.0036 25.3794V18.1255L25.3339 21.7493V29.0032L19.0036 25.3794Z" fill="#0A1393"/>
<path d="M19.0036 25.3792V32.6268L25.3339 29.003V21.749L19.0036 25.3792Z" fill="#2129DB"/>
<path d="M19.0036 25.3794L25.3339 21.7493L19.0036 18.1255L12.667 21.7493L19.0036 25.3794Z" fill="#2F37FF"/>
<path d="M12.667 29.003V21.749L19.0036 25.3792V32.6268L12.667 29.003Z" fill="#0A1393"/>
<path d="M44.3375 32.6268V39.8744L50.6742 36.2506V29.0029L44.3375 32.6268Z" fill="#2129DB"/>
<path d="M44.3375 32.627L50.6742 29.0032L44.3375 25.3794L38.0009 29.0032L44.3375 32.627Z" fill="#2F37FF"/>
<path d="M38.0009 36.2506V29.0029L44.3375 32.6268V39.8744L38.0009 36.2506Z" fill="#0A1393"/>
<path d="M44.3375 25.3792V32.6268L50.6742 29.003V21.749L44.3375 25.3792Z" fill="#2129DB"/>
<path d="M44.3375 25.3794L50.6742 21.7493L44.3375 18.1255L38.0009 21.7493L44.3375 25.3794Z" fill="#2F37FF"/>
<path d="M38.0009 29.003V21.749L44.3375 25.3792V32.6268L38.0009 29.003Z" fill="#0A1393"/>
<path d="M44.3375 18.1253V25.3792L50.6742 21.7491V14.5015L44.3375 18.1253Z" fill="url(#paint0_linear_7417_5077)"/>
<path d="M44.3375 18.1256L50.6742 14.5017L44.3375 10.8779L38.0009 14.5017L44.3375 18.1256Z" fill="#00FFBB"/>
<path d="M38.0009 21.7491V14.5015L44.3375 18.1253V25.3792L38.0009 21.7491Z" fill="#0A1393"/>
<path d="M38.0009 43.5046V50.7523L44.3375 47.1285V39.8745L38.0009 43.5046Z" fill="#2129DB"/>
<path d="M38.0009 43.5049L44.3375 39.8748L38.0009 36.251L31.6706 39.8748L38.0009 43.5049Z" fill="#2F37FF"/>
<path d="M31.6706 47.1285V39.8745L38.0009 43.5046V50.7523L31.6706 47.1285Z" fill="#0A1393"/>
<path d="M38.0009 36.2508V43.5047L44.3375 39.8746V32.627L38.0009 36.2508Z" fill="url(#paint1_linear_7417_5077)"/>
<path d="M38.0009 36.2506L44.3375 32.6267L38.0009 29.0029L31.6706 32.6267L38.0009 36.2506Z" fill="#006B7A"/>
<path d="M31.6706 39.8746V32.627L38.0009 36.2508V43.5047L31.6706 39.8746Z" fill="#0A1393"/>
<path d="M38.0009 21.7493V29.0032L44.3375 25.3794V18.1255L38.0009 21.7493Z" fill="url(#paint2_linear_7417_5077)"/>
<path d="M38.0009 21.7491L44.3375 18.1253L38.0009 14.5015L31.6706 18.1253L38.0009 21.7491Z" fill="#00FFBB"/>
<path d="M31.6706 25.3794V18.1255L38.0009 21.7493V29.0032L31.6706 25.3794Z" fill="#0A1393"/>
<path d="M31.6706 47.1287V54.3763L38.0009 50.7525V43.5049L31.6706 47.1287Z" fill="url(#paint3_linear_7417_5077)"/>
<path d="M31.6706 47.1285L38.0009 43.5046L31.6706 39.8745L25.3339 43.5046L31.6706 47.1285Z" fill="#2F37FF"/>
<path d="M25.3339 50.7525V43.5049L31.6706 47.1287V54.3763L25.3339 50.7525Z" fill="#0A1393"/>
<path d="M31.6706 39.8748V47.1287L38.0009 43.5049V36.251L31.6706 39.8748Z" fill="url(#paint4_linear_7417_5077)"/>
<path d="M31.6706 39.8746L38.0009 36.2508L31.6706 32.627L25.3339 36.2508L31.6706 39.8746Z" fill="#2F37FF"/>
<path d="M25.3339 43.5049V36.251L31.6706 39.8748V47.1287L25.3339 43.5049Z" fill="#0A1393"/>
<path d="M31.6706 32.6268V39.8744L38.0009 36.2506V29.0029L31.6706 32.6268Z" fill="url(#paint5_linear_7417_5077)"/>
<path d="M31.6706 32.627L38.0009 29.0032L31.6706 25.3794L25.3339 29.0032L31.6706 32.627Z" fill="#2F37FF"/>
<path d="M25.3339 36.2506V29.0029L31.6706 32.6268V39.8744L25.3339 36.2506Z" fill="#00A57E"/>
<path d="M31.6706 25.3792V32.6268L38.0009 29.003V21.749L31.6706 25.3792Z" fill="url(#paint6_linear_7417_5077)"/>
<path d="M31.6706 25.3794L38.0009 21.7493L31.6706 18.1255L25.3339 21.7493L31.6706 25.3794Z" fill="#00FFBB"/>
<path d="M25.3339 29.003V21.749L31.6706 25.3792V32.6268L25.3339 29.003Z" fill="#00A57E"/>
<path d="M25.3339 50.7522V58.0062L31.6706 54.376V47.1284L25.3339 50.7522Z" fill="#2129DB"/>
<path d="M25.3339 50.7525L31.6706 47.1287L25.3339 43.5049L19.0036 47.1287L25.3339 50.7525Z" fill="#2F37FF"/>
<path d="M19.0036 54.376V47.1284L25.3339 50.7522V58.0062L19.0036 54.376Z" fill="#0A1393"/>
<path d="M25.3339 43.5046V50.7523L31.6706 47.1285V39.8745L25.3339 43.5046Z" fill="#2129DB"/>
<path d="M25.3339 43.5049L31.6706 39.8748L25.3339 36.251L19.0036 39.8748L25.3339 43.5049Z" fill="#2F37FF"/>
<path d="M19.0036 47.1285V39.8745L25.3339 43.5046V50.7523L19.0036 47.1285Z" fill="#0A1393"/>
<path d="M25.3339 36.2508V43.5047L31.6706 39.8746V32.627L25.3339 36.2508Z" fill="#2129DB"/>
<path d="M25.3339 36.2506L31.6706 32.6267L25.3339 29.0029L19.0036 32.6267L25.3339 36.2506Z" fill="#2F37FF"/>
<path d="M19.0036 39.8746V32.627L25.3339 36.2508V43.5047L19.0036 39.8746Z" fill="#0A1393"/>
</g>
<defs>
<linearGradient id="paint0_linear_7417_5077" x1="48.2987" y1="19.1733" x2="30.4028" y2="36.6716" gradientUnits="userSpaceOnUse">
<stop stop-color="#00FFBB"/>
<stop offset="1" stop-color="#00C1FF"/>
</linearGradient>
<linearGradient id="paint1_linear_7417_5077" x1="54.3679" y1="25.3856" x2="36.472" y2="42.884" gradientUnits="userSpaceOnUse">
<stop stop-color="#00FFBB"/>
<stop offset="1" stop-color="#00C1FF"/>
</linearGradient>
<linearGradient id="paint2_linear_7417_5077" x1="47.0569" y1="17.9045" x2="29.1609" y2="35.4029" gradientUnits="userSpaceOnUse">
<stop stop-color="#00FFBB"/>
<stop offset="1" stop-color="#00C1FF"/>
</linearGradient>
<linearGradient id="paint3_linear_7417_5077" x1="56.7816" y1="27.8543" x2="38.8856" y2="45.3527" gradientUnits="userSpaceOnUse">
<stop stop-color="#00FFBB"/>
<stop offset="1" stop-color="#00C1FF"/>
</linearGradient>
<linearGradient id="paint4_linear_7417_5077" x1="53.1261" y1="24.1169" x2="35.2301" y2="41.6152" gradientUnits="userSpaceOnUse">
<stop stop-color="#00FFBB"/>
<stop offset="1" stop-color="#00C1FF"/>
</linearGradient>
<linearGradient id="paint5_linear_7417_5077" x1="49.4706" y1="20.3727" x2="31.5746" y2="37.8711" gradientUnits="userSpaceOnUse">
<stop stop-color="#00FFBB"/>
<stop offset="1" stop-color="#00C1FF"/>
</linearGradient>
<linearGradient id="paint6_linear_7417_5077" x1="45.815" y1="16.6353" x2="27.919" y2="34.1337" gradientUnits="userSpaceOnUse">
<stop stop-color="#00FFBB"/>
<stop offset="1" stop-color="#00C1FF"/>
</linearGradient>
<clipPath id="clip0_7417_5077">
<rect width="179.179" height="32.625" fill="white" transform="translate(65.8209 12.6875)"/>
</clipPath>
<clipPath id="clip1_7417_5077">
<rect width="50.6742" height="58" fill="white"/>
</clipPath>
</defs>
</svg>
