<svg width="32" height="28" viewBox="0 0 32 28" fill="none" xmlns="http://www.w3.org/2000/svg">
<path d="M28.75 8.5835C28.75 8.16928 28.4142 7.8335 28 7.8335C27.5858 7.8335 27.25 8.16928 27.25 8.5835H28.75ZM1.60565 20.1411C1.36134 19.8066 0.89213 19.7335 0.557638 19.9778C0.223145 20.2222 0.150037 20.6914 0.394347 21.0259L1.60565 20.1411ZM0.87257 19.8444C0.464379 19.9148 0.190527 20.3027 0.260905 20.7109C0.331283 21.1191 0.719239 21.393 1.12743 21.3226L0.87257 19.8444ZM5.5 19.0835L5.73829 19.7946C5.98386 19.7123 6.16961 19.5092 6.2296 19.2572C6.2896 19.0053 6.21535 18.7402 6.03322 18.5561L5.5 19.0835ZM4 1.0835L4.66058 0.728342C4.53797 0.500282 4.30639 0.351599 4.04798 0.335033C3.78958 0.318466 3.54091 0.43636 3.39018 0.646895L4 1.0835ZM13 8.5835L12.8229 9.31228C13.0422 9.36559 13.2739 9.31727 13.4537 9.18071C13.6334 9.04416 13.7421 8.83391 13.7496 8.60829L13 8.5835ZM26.5 4.0835L25.8738 4.49627C26.0126 4.70679 26.2479 4.8335 26.5 4.8335V4.0835ZM31 4.0835L31.624 4.49952C31.7775 4.26938 31.7918 3.97347 31.6613 3.7296C31.5307 3.48573 31.2766 3.3335 31 3.3335V4.0835ZM27.376 8.16747C27.1462 8.51212 27.2393 8.97777 27.584 9.20753C27.9286 9.4373 28.3943 9.34417 28.624 8.99952L27.376 8.16747ZM27.25 8.5835C27.25 13.6955 25.7901 18.0045 23.1251 21.0248C20.4704 24.0334 16.5593 25.8335 11.5 25.8335V27.3335C16.9407 27.3335 21.2796 25.3836 24.2499 22.0172C27.2099 18.6625 28.75 13.9715 28.75 8.5835H27.25ZM11.5 25.8335C8.64458 25.8335 6.6969 25.0928 5.21884 24.0469C3.71787 22.9848 2.65672 21.5802 1.60565 20.1411L0.394347 21.0259C1.43828 22.4551 2.62713 24.0505 4.35241 25.2713C6.1006 26.5084 8.35542 27.3335 11.5 27.3335V25.8335ZM1.12743 21.3226C1.16559 21.316 1.19638 21.3074 1.19656 21.3073C1.20532 21.305 1.21263 21.3029 1.21676 21.3017C1.22545 21.2991 1.23389 21.2965 1.24031 21.2945C1.25381 21.2903 1.27054 21.2849 1.28892 21.279C1.32625 21.267 1.37817 21.25 1.44171 21.2291C1.56916 21.1871 1.74789 21.1279 1.96014 21.0573C2.38485 20.9161 2.94629 20.7287 3.50585 20.5417C4.0655 20.3547 4.6236 20.1679 5.04177 20.0279C5.25086 19.9579 5.42498 19.8996 5.54683 19.8588C5.60776 19.8384 5.65561 19.8223 5.68824 19.8114C5.70456 19.8059 5.71707 19.8017 5.7255 19.7989C5.72971 19.7975 5.73291 19.7964 5.73505 19.7957C5.73612 19.7954 5.73693 19.7951 5.73747 19.7949C5.73774 19.7948 5.73795 19.7948 5.73808 19.7947C5.73815 19.7947 5.7382 19.7947 5.73824 19.7947C5.73827 19.7946 5.73829 19.7946 5.5 19.0835C5.26171 18.3724 5.26169 18.3724 5.26166 18.3724C5.26163 18.3724 5.26158 18.3724 5.26151 18.3724C5.26138 18.3725 5.26117 18.3725 5.2609 18.3726C5.26037 18.3728 5.25956 18.3731 5.25849 18.3734C5.25636 18.3742 5.25317 18.3752 5.24896 18.3766C5.24054 18.3795 5.22804 18.3836 5.21174 18.3891C5.17914 18.4 5.13131 18.416 5.07042 18.4364C4.94863 18.4772 4.77458 18.5355 4.56557 18.6055C4.14754 18.7454 3.58971 18.9321 3.0304 19.119C2.47101 19.306 1.91046 19.4931 1.4869 19.6339C1.275 19.7044 1.09801 19.763 0.972765 19.8042C0.909953 19.8249 0.861274 19.8408 0.828088 19.8515C0.811207 19.857 0.800189 19.8605 0.794011 19.8624C0.790589 19.8635 0.791204 19.8633 0.794158 19.8624C0.795415 19.862 0.800373 19.8606 0.807315 19.8587C0.810787 19.8578 0.817162 19.8561 0.825298 19.8541C0.831131 19.8527 0.849113 19.8484 0.87257 19.8444L1.12743 21.3226ZM6.03322 18.5561C1.28541 13.7561 0.928167 6.66242 4.60982 1.5201L3.39018 0.646895C-0.708168 6.37124 -0.305407 14.2809 4.96678 19.6109L6.03322 18.5561ZM3.33942 1.43865C5.25749 5.00623 8.85519 8.34799 12.8229 9.31228L13.1771 7.85471C9.72481 7.01567 6.43251 4.02409 4.66058 0.728342L3.33942 1.43865ZM13.7496 8.60829C13.8158 6.60563 14.5248 4.9165 15.6829 3.73306C16.837 2.55371 18.4784 1.8335 20.5 1.8335V0.333496C18.1033 0.333496 16.0663 1.19662 14.6108 2.68393C13.1594 4.16716 12.3275 6.22803 12.2504 8.5587L13.7496 8.60829ZM20.5 1.8335C21.9073 1.8335 22.9754 2.10107 23.8169 2.55017C24.6568 2.9984 25.3174 3.65218 25.8738 4.49627L27.1262 3.67073C26.4609 2.66148 25.6257 1.81526 24.5231 1.22683C23.4221 0.639254 22.101 0.333496 20.5 0.333496V1.8335ZM26.5 4.8335H31V3.3335H26.5V4.8335ZM30.376 3.66747L27.376 8.16747L28.624 8.99952L31.624 4.49952L30.376 3.66747Z" fill="white"/>
</svg>
