<svg width="24" height="24" viewBox="0 0 24 24" fill="none" xmlns="http://www.w3.org/2000/svg">
<g clip-path="url(#clip0_7396_6930)">
<path d="M12 22C17.2927 22 21.5833 17.5228 21.5833 12C21.5833 6.47715 17.2927 2 12 2C6.70723 2 2.41663 6.47715 2.41663 12C2.41663 17.5228 6.70723 22 12 22Z" fill="#F0F0F0"/>
<path d="M4.39762 5.9118C3.64484 6.93379 3.07722 8.11172 2.7467 9.39137H7.73221L4.39762 5.9118Z" fill="#0052B4"/>
<path d="M21.2531 9.39137C20.9226 8.11176 20.355 6.93383 19.6022 5.91184L16.2677 9.39137H21.2531Z" fill="#0052B4"/>
<path d="M2.7467 14.6087C3.07725 15.8884 3.64488 17.0663 4.39762 18.0882L7.7321 14.6087H2.7467Z" fill="#0052B4"/>
<path d="M17.8344 4.06723C16.855 3.28172 15.7262 2.68942 14.4999 2.34449V7.54672L17.8344 4.06723Z" fill="#0052B4"/>
<path d="M6.16541 19.9328C7.14481 20.7183 8.27366 21.3106 9.49996 21.6555V16.4533L6.16541 19.9328Z" fill="#0052B4"/>
<path d="M9.49992 2.34449C8.27363 2.68942 7.14478 3.28172 6.16541 4.06719L9.49992 7.54668V2.34449Z" fill="#0052B4"/>
<path d="M14.4999 21.6555C15.7262 21.3106 16.855 20.7183 17.8344 19.9328L14.4999 16.4533V21.6555Z" fill="#0052B4"/>
<path d="M16.2677 14.6087L19.6022 18.0883C20.355 17.0663 20.9226 15.8884 21.2531 14.6087H16.2677Z" fill="#0052B4"/>
<path d="M21.5022 10.6957H13.25H13.25V2.08465C12.8408 2.02906 12.4236 2 12 2C11.5762 2 11.1591 2.02906 10.75 2.08465V10.6956V10.6956H2.49775C2.44448 11.1226 2.41663 11.5579 2.41663 12C2.41663 12.4421 2.44448 12.8774 2.49775 13.3043H10.7499H10.7499V21.9154C11.1591 21.9709 11.5762 22 12 22C12.4236 22 12.8408 21.971 13.2499 21.9154V13.3044V13.3044H21.5022C21.5554 12.8774 21.5833 12.4421 21.5833 12C21.5833 11.5579 21.5554 11.1226 21.5022 10.6957Z" fill="#D80027"/>
<path d="M14.5 14.6088L18.7764 19.0711C18.9731 18.8659 19.1607 18.6514 19.3397 18.4291L15.6785 14.6087H14.5V14.6088Z" fill="#D80027"/>
<path d="M9.49996 14.6087H9.49989L5.22351 19.0711C5.42012 19.2763 5.62567 19.4721 5.83875 19.6589L9.49996 15.8384V14.6087Z" fill="#D80027"/>
<path d="M9.49989 9.39137V9.39129L5.22348 4.92891C5.02679 5.13406 4.83917 5.34855 4.66016 5.5709L8.3214 9.39133H9.49989V9.39137Z" fill="#D80027"/>
<path d="M14.5 9.39137L18.7765 4.92895C18.5798 4.72371 18.3743 4.52793 18.1612 4.34117L14.5 8.16161V9.39137Z" fill="#D80027"/>
</g>
<defs>
<clipPath id="clip0_7396_6930">
<rect width="19.1667" height="20" fill="white" transform="translate(2.41663 2)"/>
</clipPath>
</defs>
</svg>
