<svg width="36" height="30" viewBox="0 0 36 30" fill="none" xmlns="http://www.w3.org/2000/svg">
<path fill-rule="evenodd" clip-rule="evenodd" d="M33.9717 5.62161C33.59 3.94828 32.46 2.62828 31.0233 2.17495C28.425 1.36328 18 1.36328 18 1.36328C18 1.36328 7.58 1.36328 4.97666 2.17495C3.545 2.62161 2.41499 3.94161 2.02833 5.62161C1.33333 8.65828 1.33333 14.9999 1.33333 14.9999C1.33333 14.9999 1.33333 21.3416 2.02833 24.3783C2.40999 26.0516 3.54 27.3716 4.97666 27.8249C7.58 28.6366 18 28.6366 18 28.6366C18 28.6366 28.425 28.6366 31.0233 27.8249C32.455 27.3783 33.585 26.0583 33.9717 24.3783C34.6667 21.3416 34.6667 14.9999 34.6667 14.9999C34.6667 14.9999 34.6667 8.65828 33.9717 5.62161Z" stroke="white" stroke-width="1.5" stroke-linecap="round" stroke-linejoin="round"/>
<path fill-rule="evenodd" clip-rule="evenodd" d="M14.67 20L23.33 15L14.67 10V20Z" stroke="white" stroke-width="1.5" stroke-linecap="round" stroke-linejoin="round"/>
</svg>
